HIERARCHY
ROOT hip
{
	OFFSET 0.000000 0.000000 0.000000 
	CHANNELS 6 Xposition Yposition Zposition Xrotation Zrotation Yrotation
	JOINT abdomen
	{
		OFFSET 0.000000 3.402643 0.000000 
		CHANNELS 3 Xrotation Zrotation Yrotation
		JOINT chest
		{
			OFFSET 0.000000 8.438565 -0.680529 
			CHANNELS 3 Xrotation Zrotation Yrotation
			JOINT neck
			{
				OFFSET 0.000000 10.207942 -0.272212 
				CHANNELS 3 Xrotation Zrotation Yrotation
				JOINT head
				{
					OFFSET 0.000000 3.130431 0.000000 
					CHANNELS 3 Xrotation Zrotation Yrotation
					End Site
					{
						OFFSET 0.000000 3.130435 0.000000 
					}
				}
			}
			JOINT lCollar
			{
				OFFSET 3.470700 6.669187 -0.816635 
				CHANNELS 3 Yrotation Zrotation Xrotation
				JOINT lShldr
				{
					OFFSET 3.198488 0.000000 0.000000 
					CHANNELS 3 Zrotation Yrotation Xrotation
					JOINT lForeArm
					{
						OFFSET 10.139888 0.000000 0.000000 
						CHANNELS 3 Yrotation Zrotation Xrotation
						JOINT lHand
						{
							OFFSET 8.370511 0.000000 0.000000 
							CHANNELS 3 Zrotation Yrotation Xrotation
							End Site
							{
								OFFSET 4.083176 0.000000 0.000000 
							}
						}
					}
				}
			}
			JOINT rCollar
			{
				OFFSET -3.470700 6.669187 -0.816635 
				CHANNELS 3 Yrotation Zrotation Xrotation
				JOINT rShldr
				{
					OFFSET -3.198488 0.000000 0.000000 
					CHANNELS 3 Zrotation Yrotation Xrotation
					JOINT rForeArm
					{
						OFFSET -10.139888 0.000000 0.000000 
						CHANNELS 3 Yrotation Zrotation Xrotation
						JOINT rHand
						{
							OFFSET -8.370511 0.000000 0.000000 
							CHANNELS 3 Zrotation Yrotation Xrotation
							End Site
							{
								OFFSET -4.083176 0.000000 0.000000 
							}
						}
					}
				}
			}
		}
	}
	JOINT lThigh
	{
		OFFSET 5.308129 -1.633274 1.361059 
		CHANNELS 3 Xrotation Zrotation Yrotation
		JOINT lShin
		{
			OFFSET -2.041588 -20.007561 0.000000 
			CHANNELS 3 Xrotation Zrotation Yrotation
			JOINT lFoot
			{
				OFFSET 0.000000 -19.190928 -1.224953 
				CHANNELS 3 Xrotation Yrotation Zrotation
				End Site
				{
					OFFSET 0.000000 -2.449906 4.627600 
				}
			}
		}
	}
	JOINT rThigh
	{
		OFFSET -5.308129 -1.633274 1.361059 
		CHANNELS 3 Xrotation Zrotation Yrotation
		JOINT rShin
		{
			OFFSET 2.041588 -20.007561 0.000000 
			CHANNELS 3 Xrotation Zrotation Yrotation
			JOINT rFoot
			{
				OFFSET 0.000000 -19.190928 -1.224953 
				CHANNELS 3 Xrotation Yrotation Zrotation
				End Site
				{
					OFFSET 0.000000 -2.449906 4.627600 
				}
			}
		}
	}
}
MOTION
Frames: 11
Frame Time: 0.016667
0.354835 54.016083 18.360203 -9.358033 4.953282 12.763530 32.250111 -1.276829 -0.527064 -0.426847 1.269512 -0.546798 -7.910154 -0.117330 0.007855 10.934816 -5.854414 -2.366136 -2.351798 -6.321795 -0.334572 -69.941223 9.767566 -18.621704 -38.951939 -5.000000 20.017969 0.000000 0.000000 26.406248 14.110852 7.967972 -0.421770 67.739067 -10.220984 -19.413832 35.302834 5.000000 18.097515 0.000000 0.000000 11.025392 3.426896 14.809071 -1.656933 32.939140 -5.234729 -3.694434 -13.724720 7.190712 -10.268894 6.951113 -9.088172 2.650752 3.219720 4.408175 0.410546 1.836055 -9.840756 7.057660 
0.410917 53.986553 18.664236 -9.340356 4.272389 12.457376 31.932753 -0.547221 -0.190287 -0.439267 1.337857 -0.683482 -7.822278 -0.184920 0.018101 10.942603 -5.895366 -1.855999 -2.380692 -6.253523 -0.331054 -70.214302 9.553417 -18.283976 -38.230217 -5.000000 20.625065 0.000000 0.000000 26.503906 14.097595 7.668028 -0.396755 67.484970 -9.965477 -18.657955 35.995174 5.000000 17.523468 0.000000 0.000000 10.908202 3.865575 15.246910 -1.161534 28.240564 -5.263503 -3.109036 -13.676411 7.656204 -10.828277 7.333689 -8.406821 2.903242 2.722830 4.321419 0.342738 1.678523 -9.755960 7.056367 
0.467179 53.954388 18.960041 -9.256169 3.589669 12.163407 31.562008 0.155977 0.111236 -0.461530 1.415962 -0.800871 -7.705063 -0.205692 0.011332 10.941941 -5.935828 -1.365291 -2.419187 -6.155991 -0.326027 -70.466118 9.294303 -17.825825 -37.402096 -5.000000 21.269165 0.000000 0.000000 26.367188 14.066416 7.394962 -0.382624 67.236092 -9.721418 -17.918163 36.673111 5.000000 16.969173 0.000000 0.000000 10.751953 4.335782 15.691378 -0.659980 23.244303 -5.281719 -2.510984 -13.235347 8.139397 -11.535402 7.645161 -7.751465 3.205439 2.242831 4.249828 0.267402 1.516986 -9.717182 7.071860 
0.544780 53.915813 19.251667 -9.211085 2.866936 11.890204 31.225336 0.914180 0.412260 -0.494099 1.523358 -0.937553 -7.578126 -0.263627 0.020133 10.967221 -6.034362 -0.933886 -2.496041 -6.117393 -0.314315 -70.759216 9.141343 -17.529610 -36.566368 -5.000000 21.940659 0.000000 0.000000 26.171875 14.046062 7.090267 -0.376369 67.027542 -9.614925 -17.379339 37.347324 5.000000 16.505306 0.000000 0.000000 10.585938 5.010122 16.111961 0.069466 18.012417 -5.240019 -1.927597 -12.006343 8.248304 -11.797071 7.965422 -7.085224 3.611415 1.787881 4.207156 0.253306 1.339843 -9.797185 7.094479 
0.654410 53.867619 19.537020 -9.228814 2.085174 11.638683 30.923460 1.772805 0.732176 -0.547273 1.669803 -1.094029 -7.431641 -0.390612 0.029469 11.043623 -6.220343 -0.619019 -2.632923 -6.146651 -0.315824 -71.098999 9.142312 -17.453178 -35.721474 -5.000000 22.676649 0.000000 0.000000 25.849611 14.063442 6.758682 -0.359192 66.890625 -9.688688 -17.150072 37.998924 5.000000 16.169243 0.000000 0.000000 10.410156 6.022660 16.495123 1.119901 12.405588 -5.133748 -1.365248 -9.729802 7.812205 -11.337884 8.344623 -6.420626 4.219683 1.287851 4.203246 0.234943 1.239412 -10.101755 7.121047 
0.764039 53.819424 19.822371 -9.237991 1.311597 11.380191 30.626905 2.631348 1.050890 -0.600637 1.816242 -1.240466 -7.285155 -0.517598 0.038717 11.119125 -6.415920 -0.314908 -2.770918 -6.185188 -0.327533 -71.430794 9.150541 -17.385035 -34.883549 -5.000000 23.420235 0.000000 0.000000 25.537109 14.080982 6.436849 -0.341413 66.752281 -9.766607 -16.907768 38.651199 5.000000 15.837144 0.000000 0.000000 10.244141 7.066175 16.886208 2.154953 6.794789 -4.999820 -0.805595 -7.466545 7.439285 -10.839013 8.735492 -5.786964 4.818444 0.791354 4.205957 0.217977 1.069587 -10.322212 7.154504 
0.882430 53.842827 20.073225 -9.081744 1.331515 11.214225 30.515167 2.434649 0.954744 -0.456719 1.865039 -1.328321 -7.929682 -0.069051 0.000559 11.000605 -6.415999 -0.128340 -2.527928 -6.380280 -0.337585 -71.214920 8.449131 -16.524740 -33.690277 -5.000000 24.119165 0.000000 0.000000 25.742188 13.187083 7.148925 -0.379433 65.835228 -9.306520 -16.271795 39.017746 5.000000 15.619709 0.000000 0.000000 9.521484 6.979527 16.458689 1.356191 6.664591 -4.626726 -0.741354 -6.550860 8.190054 -9.751245 9.106512 -5.981739 5.136383 0.323844 4.209547 0.192687 0.942017 -10.614007 7.184198 
1.000816 53.866226 20.324080 -8.935605 1.351488 11.038266 30.413305 2.238654 0.859598 -0.312749 1.904068 -1.406733 -8.584116 0.387690 -0.048780 10.873416 -6.416013 0.048522 -2.294738 -6.575368 -0.347634 -71.011421 7.749781 -15.667364 -32.513275 -5.000000 24.809767 0.000000 0.000000 25.957031 12.303425 7.860995 -0.416296 64.916649 -8.838687 -15.650294 39.394104 5.000000 15.403360 0.000000 0.000000 8.818359 6.900858 16.036362 0.550416 6.537370 -4.273391 -0.668927 -5.652384 8.894170 -8.732393 9.498288 -6.178418 5.463444 -0.165217 4.229072 0.146069 0.830562 -10.821404 7.225448 
1.135718 53.866814 20.552399 -8.838970 1.208153 10.930216 30.245270 2.368042 0.761907 -0.312414 2.040643 -1.728865 -8.691565 0.416657 -0.053163 10.879789 -6.513496 0.421642 -2.178710 -6.760684 -0.358326 -71.068680 7.426949 -15.241748 -31.337225 -5.000000 25.415964 0.000000 0.000000 25.859375 12.236555 8.243419 -0.427903 64.414009 -8.799713 -15.482647 39.472645 5.000000 15.202005 0.000000 0.000000 8.398438 7.088636 15.954473 0.224176 6.374011 -4.022669 -0.588545 -5.241450 9.243961 -8.740211 9.784575 -6.219949 5.602329 -0.389482 4.273477 0.128300 0.610525 -10.911674 7.238026 
1.281631 53.852184 20.765692 -8.795972 0.930271 10.870703 30.028879 2.731739 0.656193 -0.415998 2.225892 -2.217632 -8.437531 0.154492 -0.023374 10.976482 -6.678826 0.924232 -2.160370 -6.945984 -0.367895 -71.310188 7.338223 -15.094764 -30.172894 -5.000000 25.948805 0.000000 0.000000 25.556641 12.735869 8.409208 -0.436495 64.204292 -9.050039 -15.630769 39.365559 5.000000 15.002514 0.000000 0.000000 8.164063 7.448624 16.106752 0.219989 6.163373 -3.861884 -0.558037 -5.187865 9.216315 -9.458507 10.005754 -6.148679 5.577453 -0.448205 4.385569 0.121435 0.316444 -10.778152 7.246529 
1.415286 53.842846 20.976231 -8.777672 0.729181 10.743172 29.879793 2.944178 0.561873 -0.476897 2.342800 -2.569391 -8.291034 0.115869 -0.017531 11.023046 -6.736645 1.268250 -2.219218 -6.984982 -0.369908 -71.589081 7.209968 -14.951077 -29.106541 -5.000000 26.400682 0.000000 0.000000 25.332029 12.992819 8.611811 -0.456511 64.036293 -9.164516 -15.691750 39.043907 5.000000 14.924800 0.000000 0.000000 7.871094 7.851933 16.200583 0.243382 5.983007 -3.747873 -0.462849 -5.134130 9.260143 -10.029820 10.211462 -6.100507 5.559445 -0.418360 4.437721 0.132299 0.030940 -10.672956 7.224967 
